<svg xmlns="http://www.w3.org/2000/svg" xmlns:inkscape="http://www.inkscape.org/namespaces/inkscape" viewBox="336 52 1834 1832"><g id="BROWN-badge-rings" transform="translate(6.6,0)"><circle cx="1247.4" cy="969.4" r="603.7" fill="none" stroke="#F7F3EA" stroke-width="23.0"/><circle cx="1247.4" cy="969.4" r="843.8" fill="none" stroke="#F7F3EA" stroke-width="15.4"/><circle cx="1247.4" cy="969.4" r="888.1" fill="none" stroke="#F7F3EA" stroke-width="29.0"/></g><g id="BROWN-badge" transform="translate(6.6,0) translate(0.000000,2508.000000) scale(0.100000,-0.100000)" fill="#F7F3EA" stroke="none"><path d="M12505 23518 c-2 -7 -8 -33 -14 -58 -5 -25 -24 -99 -41 -165 -17 -66
-35 -135 -40 -154 -8 -33 -24 -51 -46 -51 -10 0 -83 67 -272 252 -63 62 -96
88 -103 81 -7 -7 -5 -21 5 -44 8 -19 36 -92 61 -164 77 -216 87 -261 60 -271
-17 -7 -114 22 -315 95 -148 53 -173 61 -199 61 -12 0 -21 -4 -19 -9 2 -5 58
-59 125 -120 170 -155 283 -266 283 -279 0 -5 -42 -20 -92 -31 -192 -43 -390
-81 -417 -81 -30 0 -57 -22 -47 -39 4 -5 28 -13 54 -16 26 -4 126 -23 222 -42
96 -19 194 -39 218 -44 52 -10 62 -16 62 -33 0 -12 -288 -283 -375 -353 -22
-17 -36 -35 -32 -39 4 -4 33 0 65 10 31 9 77 24 102 31 25 8 117 40 205 70
149 53 160 56 172 39 7 -10 13 -24 13 -31 0 -12 -20 -71 -40 -118 -5 -11 -16
-40 -24 -65 -21 -67 -65 -180 -86 -222 -10 -20 -16 -39 -12 -42 10 -11 42 -6
42 6 0 17 308 318 338 329 27 11 52 -3 52 -29 0 -9 4 -29 10 -46 5 -17 27
-103 49 -191 33 -135 42 -160 57 -160 14 0 21 10 26 40 3 22 15 74 26 115 11
41 28 102 37 135 33 123 44 145 73 145 7 0 91 -79 185 -175 95 -96 181 -175
190 -175 21 0 22 14 2 34 -8 8 -15 18 -15 23 0 4 -14 44 -31 88 -17 44 -34 89
-39 100 -4 11 -22 65 -39 119 -29 89 -30 101 -17 115 18 18 34 13 300 -81 167
-60 246 -79 246 -62 0 6 -34 39 -77 74 -42 35 -135 121 -207 191 -151 146
-152 134 14 169 58 12 146 31 195 42 50 10 116 22 148 27 100 13 103 49 5 62
-112 14 -466 93 -480 107 -11 11 312 325 378 368 13 9 24 23 24 31 0 20 -26
14 -286 -73 -121 -41 -227 -74 -236 -74 -36 0 -37 23 -7 115 16 50 33 98 39
107 5 10 10 25 10 33 0 8 4 23 9 33 5 9 19 44 32 77 12 33 26 65 31 71 9 13 0
46 -12 42 -4 -2 -63 -55 -130 -118 -236 -223 -231 -219 -256 -202 -6 4 -18 34
-28 67 -33 116 -56 201 -72 270 -23 97 -22 95 -39 95 -9 0 -17 -6 -20 -12z
m122 -514 c145 -33 269 -127 327 -247 106 -216 20 -497 -184 -606 -161 -86
-304 -91 -460 -14 -286 140 -347 516 -120 742 119 118 275 163 437 125z"/><path d="M12444 22881 c-151 -39 -254 -173 -254 -331 0 -93 26 -161 87 -222
44 -44 74 -64 57 -36 -4 7 -3 8 5 4 6 -4 9 -11 6 -16 -12 -20 105 -60 178 -60
62 0 161 34 214 73 23 18 43 36 43 40 0 5 -5 5 -12 1 -7 -4 -8 -3 -4 5 4 6 11
9 16 6 26 -16 90 136 90 212 0 64 -41 162 -91 217 -69 76 -133 107 -227 112
-42 2 -91 0 -108 -5z m71 -61 c-27 -4 -53 -5 -57 -3 -4 2 -9 -1 -13 -7 -3 -5
-21 -10 -38 -10 l-32 1 30 14 c17 7 59 13 95 13 l65 -1 -50 -7z m-305 -250
c-6 -74 -7 -78 -9 -29 -1 51 8 124 14 117 2 -2 -1 -41 -5 -88z m643 -58 c-7
-29 -8 -22 -9 44 0 71 1 75 9 36 5 -25 5 -60 0 -80z"/><path d="M14567 22680 c-59 -10 -151 -38 -192 -57 -63 -30 -215 -138 -215
-153 0 -16 145 -170 159 -170 4 0 16 10 27 21 28 32 122 92 179 116 234 97
484 22 584 -176 17 -33 51 -121 75 -195 70 -210 112 -285 220 -391 142 -140
263 -195 559 -255 246 -50 343 -85 466 -169 72 -49 78 -18 8 45 -111 102 -262
176 -442 218 -174 41 -206 52 -340 117 -106 52 -208 142 -259 229 -38 65 -89
192 -106 265 -30 132 -45 176 -80 251 -92 191 -267 301 -495 309 -55 2 -122 0
-148 -5z"/><path d="M10208 22584 c-85 -20 -168 -66 -239 -131 -101 -94 -132 -153 -204
-388 -57 -184 -96 -256 -190 -350 -65 -66 -97 -89 -170 -124 -49 -24 -97 -46
-105 -50 -18 -9 -161 -44 -245 -61 -130 -25 -236 -60 -325 -107 -89 -47 -180
-121 -180 -145 0 -16 26 -7 80 28 70 44 205 87 340 109 391 61 522 111 677
258 106 101 176 223 238 417 41 129 115 239 194 289 179 115 428 84 598 -73
34 -32 68 -56 76 -54 23 5 147 145 147 164 -1 25 -117 115 -206 159 -143 71
-340 95 -486 59z"/><path d="M14739 22187 c-34 -23 -79 -81 -79 -101 1 -6 8 3 17 19 23 43 43 65
83 86 19 10 30 18 24 19 -6 0 -26 -10 -45 -23z"/><path d="M15850 22071 c-19 -5 -75 -21 -125 -36 -107 -32 -228 -33 -262 -2
-23 20 -53 23 -53 4 0 -25 87 -133 141 -173 162 -122 287 -147 556 -109 131
19 174 17 296 -11 40 -9 35 13 -18 84 -68 91 -166 176 -242 213 -59 28 -80 33
-163 35 -52 2 -111 -1 -130 -5z"/><path d="M8987 22035 c-102 -28 -159 -65 -259 -166 -122 -125 -138 -161 -61
-140 59 17 168 13 283 -10 193 -38 344 -24 475 44 63 33 225 185 225 212 0 20
-29 19 -70 -2 -70 -34 -121 -29 -275 27 -130 48 -230 59 -318 35z"/><path d="M15010 21983 c0 -6 -12 -28 -26 -49 -15 -21 -19 -32 -10 -24 21 17
49 70 42 78 -3 3 -6 1 -6 -5z"/><path d="M8053 21530 c-54 -24 -75 -44 -102 -97 -25 -50 -27 -90 -6 -141 58
-136 234 -164 328 -52 61 72 58 165 -8 238 -64 71 -132 87 -212 52z"/><path d="M16855 21538 c-104 -36 -162 -157 -121 -251 17 -39 71 -92 109 -106
142 -54 287 80 248 227 -15 54 -51 95 -106 121 -49 23 -83 25 -130 9z"/><path d="M10896 20412 c-2 -4 -1 -23 4 -42 8 -34 8 -34 9 -6 1 29 2 29 16 10
14 -17 14 -15 0 14 -16 33 -21 37 -29 24z"/><path d="M14056 20396 c-20 -31 -21 -47 -1 -20 14 18 14 18 16 -11 l1 -30 8
35 c11 45 -2 59 -24 26z"/><path d="M12413 19565 c0 -33 2 -45 4 -27 2 18 2 45 0 60 -2 15 -4 0 -4 -33z"/><path d="M6042 19388 c-202 -268 -245 -363 -245 -543 0 -98 4 -118 64 -343 7
-24 18 -46 26 -49 20 -8 220 199 278 287 27 41 60 106 74 145 22 63 25 85 25
230 1 159 -9 241 -44 375 -10 40 -23 66 -32 68 -9 2 -64 -62 -146 -170z"/><path d="M18746 19548 c-30 -100 -66 -327 -66 -413 0 -236 88 -415 299 -612
45 -41 87 -73 94 -70 14 5 59 187 78 311 26 173 -31 345 -185 552 -163 220
-209 269 -220 232z"/><path d="M5432 18812 c-20 -48 -54 -160 -68 -222 -10 -47 -6 -225 7 -275 25
-100 66 -172 171 -302 32 -39 62 -83 68 -97 17 -45 39 -31 75 47 140 303 103
516 -139 809 -79 95 -89 99 -114 40z"/><path d="M19430 18793 c-84 -95 -134 -170 -183 -273 -48 -100 -51 -108 -55
-205 -5 -120 18 -224 78 -352 41 -88 61 -102 78 -55 5 15 29 52 54 82 51 63
125 177 152 233 67 144 56 388 -25 571 -26 59 -46 59 -99 -1z"/><path d="M12623 18715 c0 -27 2 -38 4 -22 2 15 2 37 0 50 -2 12 -4 0 -4 -28z"/><path d="M6294 18621 c-323 -169 -378 -238 -467 -587 -32 -127 -35 -154 -17
-154 18 0 268 126 322 162 165 111 267 269 313 490 21 102 20 158 -2 158 -10
0 -77 -31 -149 -69z"/><path d="M18500 18633 c0 -79 42 -239 87 -331 41 -83 114 -169 204 -238 74
-56 338 -189 351 -176 21 21 -44 286 -94 386 -76 152 -173 232 -462 385 -82
43 -86 42 -86 -26z"/><path d="M8340 18532 c0 -5 10 -17 22 -28 22 -19 22 -19 8 0 -14 18 -13 19 5
13 20 -7 20 -7 1 8 -22 17 -36 19 -36 7z"/><path d="M16626 18529 c3 -6 -18 -36 -47 -67 l-54 -57 53 50 c63 59 80 85 57
85 -9 0 -13 -5 -9 -11z"/><path d="M12643 18365 c0 -27 2 -38 4 -22 2 15 2 37 0 50 -2 12 -4 0 -4 -28z"/><path d="M8530 18338 c41 -45 50 -53 50 -45 0 2 -21 23 -47 47 l-48 45 45 -47z"/><path d="M16425 18308 l-50 -53 53 50 c28 27 52 51 52 52 0 8 -9 -1 -55 -49z"/><path d="M12333 18235 c0 -33 2 -45 4 -27 2 18 2 45 0 60 -2 15 -4 0 -4 -33z"/><path d="M16280 18163 l-55 -58 58 55 c53 50 62 60 54 60 -1 0 -27 -26 -57
-57z"/><path d="M5161 18126 c-33 -91 -57 -207 -47 -231 3 -8 2 -16 -3 -19 -11 -7 7
-163 26 -221 22 -68 57 -137 98 -191 65 -85 189 -214 206 -214 12 0 22 21 38
83 12 45 28 107 36 137 19 69 19 238 1 308 -21 76 -67 168 -119 237 -73 97
-167 195 -187 195 -14 0 -26 -21 -49 -84z"/><path d="M19647 18118 c-98 -109 -149 -184 -186 -272 -68 -165 -63 -288 26
-578 11 -36 43 -15 134 87 167 187 211 285 214 470 2 115 -10 194 -47 308 -30
92 -45 91 -141 -15z"/><path d="M12323 18085 c0 -27 2 -38 4 -22 2 15 2 37 0 50 -2 12 -4 0 -4 -28z"/><path d="M12663 18015 c0 -27 2 -38 4 -22 2 15 2 37 0 50 -2 12 -4 0 -4 -28z"/><path d="M6230 17953 c-60 -20 -233 -91 -270 -111 -111 -60 -197 -143 -251
-240 -30 -56 -119 -323 -119 -360 0 -20 21 -14 163 42 216 86 320 166 405 309
49 82 102 230 117 325 7 44 -1 50 -45 35z"/><path d="M18670 17951 c0 -6 7 -40 16 -77 53 -232 151 -396 287 -482 128 -81
358 -176 377 -156 8 9 -23 143 -55 239 -69 205 -196 333 -410 416 -170 65
-215 78 -215 60z"/><path d="M9010 17848 c57 -60 106 -108 107 -108 8 0 -5 13 -104 110 l-108 105
105 -107z"/><path d="M15985 17858 l-90 -93 93 90 c50 49 92 91 92 92 0 8 -12 -4 -95 -89z"/><path d="M12313 17860 c0 -41 2 -58 4 -37 2 20 2 54 0 75 -2 20 -4 3 -4 -38z"/><path d="M12303 17695 c0 -27 2 -38 4 -22 2 15 2 37 0 50 -2 12 -4 0 -4 -28z"/><path d="M12683 17655 c0 -27 2 -38 4 -22 2 15 2 37 0 50 -2 12 -4 0 -4 -28z"/><path d="M15655 17518 l-80 -83 83 80 c45 44 82 81 82 82 0 8 -11 -3 -85 -79z"/><path d="M4972 17528 c-52 -64 -62 -372 -17 -516 37 -117 102 -209 234 -332
62 -58 120 -105 129 -105 12 0 18 9 19 30 1 17 9 73 17 125 47 281 -15 475
-216 680 -53 55 -140 130 -150 130 -3 0 -10 -6 -16 -12z"/><path d="M12293 17460 c0 -41 2 -58 4 -37 2 20 2 54 0 75 -2 20 -4 3 -4 -38z"/><path d="M19866 17455 c-170 -149 -254 -279 -281 -435 -20 -114 -18 -184 9
-320 17 -90 26 -116 40 -118 30 -6 268 228 313 308 62 109 77 177 76 355 -1
188 -16 278 -49 283 -14 2 -49 -22 -108 -73z"/><path d="M9435 17410 c55 -55 102 -100 105 -100 2 0 -40 45 -95 100 -55 55
-102 100 -105 100 -2 0 40 -45 95 -100z"/><path d="M12703 17295 c0 -38 2 -53 4 -32 2 20 2 52 0 70 -2 17 -4 1 -4 -38z"/><path d="M5990 17288 c-186 -75 -258 -117 -341 -200 -63 -64 -86 -96 -128
-180 -28 -57 -51 -100 -51 -96 0 3 12 55 26 115 35 148 54 252 54 291 0 29 -3
33 -22 30 -18 -3 -24 -15 -40 -88 -19 -88 -52 -284 -63 -380 -6 -51 -6 -54 9
-35 l15 20 1 -20 c0 -11 -7 -58 -15 -105 -8 -47 -15 -88 -15 -92 0 -13 30 -9
68 9 304 138 381 190 461 310 45 67 75 131 97 203 12 43 64 239 64 245 0 15
-40 6 -120 -27z"/><path d="M18854 17316 c-6 -15 24 -148 55 -242 72 -223 160 -324 378 -433 240
-120 249 -121 237 -46 -4 30 -2 50 6 60 29 34 -19 337 -96 608 -7 23 -44 22
-44 -2 0 -17 26 -147 70 -346 28 -127 24 -155 -8 -65 -76 209 -200 322 -472
430 -47 18 -89 37 -94 42 -14 12 -26 10 -32 -6z"/><path d="M15345 17198 l-90 -93 93 90 c50 49 92 91 92 92 0 8 -12 -4 -95 -89z"/><path d="M9745 17090 c55 -55 102 -100 105 -100 2 0 -40 45 -95 100 -55 55
-102 100 -105 100 -2 0 40 -45 95 -100z"/><path d="M7580 17172 c0 -4 8 -12 18 -18 13 -8 20 -8 29 1 9 10 7 14 -10 19
-29 8 -37 7 -37 -2z"/><path d="M17365 17170 c-11 -5 -14 -9 -7 -9 7 -1 10 -6 7 -12 -4 -6 2 -5 14 3
36 22 26 35 -14 18z"/><path d="M12463 17063 c31 -2 83 -2 115 0 31 2 5 3 -58 3 -63 0 -89 -1 -57 -3z"/><path d="M14825 16668 l-260 -263 263 260 c243 241 267 265 259 265 -1 0 -119
-118 -262 -262z"/><path d="M10105 16720 c71 -71 132 -130 135 -130 2 0 -54 59 -125 130 -71 72
-132 130 -135 130 -2 0 54 -58 125 -130z"/><path d="M4779 16794 c-16 -19 -27 -342 -13 -353 5 -3 17 -36 26 -73 40 -156
151 -305 305 -409 40 -27 98 -70 129 -95 98 -80 122 -49 85 113 -11 49 -27
135 -36 193 -18 119 -50 221 -91 295 -40 70 -204 233 -298 294 -43 28 -82 51
-86 51 -4 0 -14 -7 -21 -16z"/><path d="M20110 16783 c-73 -44 -151 -103 -218 -167 -161 -153 -212 -276 -232
-556 -6 -85 -13 -169 -16 -186 -7 -40 17 -63 45 -43 10 8 57 41 102 73 233
166 345 310 380 486 8 36 17 68 22 71 11 8 4 305 -8 332 -10 23 -22 22 -75
-10z"/><path d="M5940 16653 c-8 -3 -64 -30 -125 -60 -309 -154 -408 -298 -455 -663
-6 -41 -7 -82 -4 -92 6 -22 31 -23 53 -4 9 8 52 33 96 57 44 23 105 58 135 77
57 36 180 149 180 164 0 5 14 29 30 53 48 69 100 238 118 380 12 90 8 101 -28
88z"/><path d="M18983 16573 c9 -146 66 -319 144 -436 42 -63 126 -140 208 -192 55
-34 237 -125 251 -125 9 0 14 11 14 29 0 40 -46 269 -66 328 -42 126 -115 232
-211 307 -53 42 -308 176 -334 176 -9 0 -10 -23 -6 -87z"/><path d="M5386 16601 c-5 -8 -11 -51 -12 -95 l-3 -81 15 65 c16 70 16 136 0
111z"/><path d="M14490 16335 c-24 -25 -42 -45 -39 -45 3 0 25 20 49 45 24 25 42 45
39 45 -3 0 -25 -20 -49 -45z"/><path d="M10635 16190 c27 -27 51 -50 54 -50 3 0 -17 23 -44 50 -27 28 -51 50
-54 50 -3 0 17 -22 44 -50z"/><path d="M4653 15858 c5 -132 26 -254 46 -268 4 -3 15 -25 25 -50 26 -68 74
-138 141 -209 77 -81 122 -112 270 -186 l120 -60 2 -194 1 -194 -25 34 c-51
67 -160 165 -214 191 -96 47 -140 58 -235 58 -139 0 -255 -47 -342 -139 -59
-63 -84 -120 -93 -218 -7 -76 -5 -87 18 -135 49 -102 122 -156 241 -178 141
-25 262 54 262 172 l0 47 -78 -6 c-74 -5 -79 -5 -111 23 -31 26 -33 31 -29 76
8 80 62 118 169 118 137 0 269 -108 384 -314 l26 -47 -34 -87 c-47 -118 -62
-169 -91 -292 -69 -297 -58 -441 51 -719 25 -64 58 -156 75 -206 30 -89 30
-91 25 -260 -6 -211 1 -239 60 -251 26 -5 37 -1 59 21 l26 26 -7 202 c-7 227
-4 248 75 427 80 182 105 311 97 499 -7 156 -30 261 -102 471 -26 74 -49 145
-52 157 -10 45 90 196 188 282 74 65 135 91 214 91 78 0 96 -8 124 -54 30 -48
28 -110 -5 -143 -22 -21 -32 -25 -67 -20 -23 2 -49 8 -58 11 -21 9 -49 -19
-49 -48 0 -36 42 -108 83 -140 30 -24 50 -31 97 -34 115 -8 220 71 256 193 23
83 15 205 -20 272 -36 70 -105 137 -178 174 -56 29 -72 32 -148 32 -161 0
-286 -67 -428 -228 l-42 -48 2 194 3 194 97 51 c140 74 265 172 299 237 8 14
28 49 46 79 17 29 34 64 37 78 3 14 17 63 31 110 19 61 27 119 32 207 6 118 5
123 -14 123 -57 0 -268 -134 -368 -235 -132 -131 -182 -255 -192 -482 l-6
-123 -33 0 c-38 0 -35 -6 -59 135 -29 169 -62 279 -111 363 -66 113 -245 263
-397 332 -105 47 -100 53 -94 -112z m692 -1813 c78 -283 79 -495 2 -742 -12
-40 -25 -73 -28 -73 -4 0 -9 10 -12 23 -3 12 -10 38 -16 57 -50 176 -60 238
-61 363 0 71 5 149 10 175 6 26 15 70 21 97 17 76 52 196 56 191 2 -2 15 -43
28 -91z"/><path d="M20221 15980 c-174 -79 -361 -238 -426 -361 -42 -81 -77 -195 -99
-329 -19 -114 -28 -150 -38 -150 -59 -1 -54 -10 -67 128 -14 153 -28 210 -79
316 -42 88 -109 169 -194 233 -83 64 -270 174 -285 169 -30 -12 -6 -275 37
-391 12 -33 26 -73 31 -90 17 -58 113 -188 174 -238 33 -27 113 -80 178 -118
l117 -70 0 -197 -1 -197 -22 30 c-43 59 -133 148 -187 185 -87 59 -161 82
-260 82 -100 0 -158 -23 -237 -96 -138 -127 -164 -341 -58 -478 53 -67 105
-93 190 -93 62 0 74 3 107 29 51 38 79 86 81 138 l2 43 -70 -3 c-83 -4 -102 7
-115 63 -12 53 2 105 37 135 23 20 38 24 88 23 72 -1 111 -16 189 -74 61 -46
163 -172 199 -246 l21 -43 -52 -152 c-90 -267 -106 -348 -107 -533 0 -147 2
-168 28 -255 16 -52 50 -151 77 -220 85 -218 85 -218 70 -423 -12 -173 -12
-180 7 -205 34 -46 92 -42 118 9 14 26 15 55 10 192 -8 195 -3 222 83 427 97
234 123 374 102 566 -15 142 -72 363 -135 524 l-25 64 42 75 c60 105 175 221
258 260 146 69 290 18 290 -104 0 -25 -8 -44 -26 -62 -25 -25 -29 -26 -105
-20 -79 6 -80 6 -90 -20 -21 -57 48 -163 121 -183 110 -31 227 1 312 84 66 65
88 119 88 215 -1 82 -15 121 -68 193 -84 114 -203 168 -367 168 -107 0 -165
-15 -248 -63 -46 -28 -159 -133 -200 -187 l-27 -35 1 105 c1 58 4 146 8 195
l6 90 65 34 c143 74 222 125 289 187 75 69 148 170 177 244 10 25 21 47 24 50
27 19 60 287 46 363 -8 43 -21 46 -85 17z m-555 -1980 c62 -226 60 -444 -7
-665 -11 -38 -24 -81 -28 -95 -6 -21 -11 -13 -34 59 -47 143 -60 226 -61 371
0 140 3 164 57 358 l31 114 13 -44 c7 -23 20 -68 29 -98z"/><path d="M7256 15771 c-3 -4 6 -13 20 -20 33 -15 39 -14 25 3 -10 12 -8 15 11
19 15 3 10 5 -14 6 -20 0 -39 -3 -42 -8z"/><path d="M17640 15770 l-45 -7 50 -2 c36 -1 46 -4 35 -11 -21 -13 -6 -12 25 2
14 6 25 15 25 20 0 9 -23 8 -90 -2z"/><path d="M10582 15010 c-2 -57 9 -81 38 -79 10 0 9 3 -5 8 -16 6 -21 20 -26
67 l-6 59 -1 -55z"/><path d="M14663 15040 c1 -19 8 -26 27 -27 21 -2 22 -1 6 5 -11 5 -23 17 -28
28 -6 16 -7 15 -5 -6z"/><path d="M15425 14805 c-437 -34 -771 -82 -1105 -161 -36 -8 -94 -22 -130 -31
-388 -91 -929 -290 -1315 -483 -53 -27 -62 -46 -30 -64 33 -19 284 -175 398
-249 l109 -70 46 23 c466 229 1094 439 1617 540 33 6 78 15 100 20 22 4 72 13
110 19 39 7 95 16 125 21 225 37 462 62 771 81 303 19 1006 3 1319 -30 52 -5
140 -15 195 -20 55 -6 136 -15 180 -21 44 -6 112 -13 151 -17 l72 -5 6 28 c4
16 12 67 20 112 18 116 30 107 -189 142 -71 11 -150 25 -175 30 -25 5 -79 13
-120 19 -41 6 -124 18 -185 27 -241 35 -531 66 -790 85 -224 17 -983 19 -1180
4z"/><path d="M8400 14789 c-195 -12 -412 -29 -515 -39 -248 -25 -370 -39 -525 -60
-36 -5 -102 -14 -147 -19 -200 -26 -251 -33 -303 -44 l-55 -12 1 -60 c2 -121
14 -194 35 -205 12 -7 25 -7 36 -1 10 5 81 14 158 20 77 6 208 16 290 23 201
17 1104 17 1320 0 212 -17 466 -42 625 -62 181 -24 301 -42 455 -70 30 -5 79
-14 108 -19 567 -100 1239 -312 1797 -569 433 -198 894 -473 1275 -760 451
-340 892 -769 1236 -1202 287 -361 563 -775 791 -1185 57 -102 78 -141 114
-210 22 -44 48 -81 56 -83 8 -1 63 27 122 63 59 36 110 65 112 65 2 0 37 21
77 47 241 156 347 228 351 239 5 13 -160 311 -190 345 -8 8 -14 19 -14 22 0
10 -181 285 -258 392 -617 859 -1234 1470 -2102 2079 -80 55 -424 275 -500
318 -25 14 -67 38 -95 53 -27 15 -72 40 -100 55 -476 262 -1054 494 -1570 630
-44 12 -105 28 -135 36 -30 8 -77 20 -105 25 -27 6 -66 15 -85 19 -403 91
-674 130 -1183 170 -149 12 -880 11 -1077 -1z"/><path d="M4695 14208 c-39 -14 -73 -45 -91 -85 -14 -29 -14 -35 2 -68 29 -63
107 -82 175 -43 78 44 73 145 -10 187 -22 12 -42 21 -43 20 -2 0 -16 -5 -33
-11z"/><path d="M5855 14202 c-82 -50 -90 -135 -20 -190 27 -22 89 -30 110 -14 31 21
55 68 55 105 0 32 -7 46 -39 78 -43 44 -62 47 -106 21z"/><path d="M19008 14194 c-49 -26 -71 -91 -47 -137 40 -78 107 -91 165 -33 28
28 34 42 34 76 0 34 -6 48 -34 76 -38 38 -73 43 -118 18z"/><path d="M20142 14185 c-58 -49 -65 -108 -18 -162 21 -25 31 -28 86 -28 57 0
64 3 91 33 43 48 40 93 -10 143 -32 32 -45 39 -79 39 -28 0 -49 -7 -70 -25z"/><path d="M17006 14070 c-718 -33 -1413 -158 -2031 -365 -203 -68 -427 -153
-553 -211 -29 -13 -55 -24 -57 -24 -5 0 -275 -128 -335 -158 -19 -10 -35 -25
-35 -33 0 -9 27 -37 60 -64 33 -26 87 -73 120 -104 34 -31 103 -94 154 -140
l93 -84 146 73 c375 185 827 360 1245 480 259 74 728 180 982 220 72 11 171
27 220 35 142 23 411 52 645 70 118 9 226 19 239 23 21 6 27 21 52 122 15 63
28 120 29 126 0 6 -12 16 -27 22 -38 15 -704 23 -947 12z"/><path d="M7215 13890 c-155 -9 -225 -19 -225 -32 0 -30 64 -255 76 -268 11
-11 38 -14 121 -12 316 8 1089 -80 1578 -179 716 -146 1501 -450 2130 -827
780 -467 1460 -1100 2017 -1877 90 -126 255 -381 328 -506 45 -77 87 -138 152
-225 21 -28 38 -54 38 -58 0 -4 18 -34 40 -66 22 -32 40 -61 40 -64 0 -13 65
-106 74 -106 88 0 746 181 746 206 0 6 -12 33 -26 60 -15 27 -41 76 -57 109
-17 33 -41 74 -54 91 -13 17 -23 34 -23 38 0 4 -10 22 -23 39 -26 37 -25 37
-113 187 -95 162 -326 507 -459 685 -470 630 -1043 1172 -1705 1612 -58 38
-136 89 -175 113 -180 110 -276 166 -345 203 -41 22 -79 43 -85 47 -11 9 -231
119 -335 167 -84 40 -134 62 -245 108 -49 20 -105 44 -123 52 -73 32 -320 118
-472 163 -41 13 -101 31 -132 41 -91 28 -457 117 -588 143 -379 73 -603 103
-1055 141 -207 18 -903 27 -1100 15z"/><path d="M17675 13339 c-33 -4 -107 -13 -165 -19 -115 -12 -224 -26 -310 -40
-30 -5 -89 -14 -130 -20 -134 -20 -211 -34 -335 -60 -239 -52 -470 -111 -660
-171 -33 -11 -76 -24 -95 -30 -19 -6 -44 -14 -55 -19 -11 -4 -56 -22 -100 -38
-129 -48 -218 -83 -250 -97 -16 -7 -50 -22 -75 -32 -25 -11 -61 -26 -80 -33
-83 -30 -575 -286 -578 -301 -1 -8 47 -71 108 -140 61 -68 132 -152 158 -186
45 -60 67 -73 88 -54 5 5 25 18 44 29 19 11 98 57 175 102 148 88 568 298 745
373 359 153 857 310 1300 412 113 26 211 51 218 57 6 6 12 17 12 25 0 8 11 36
24 62 13 26 34 76 46 111 18 51 20 64 9 71 -8 5 -18 8 -24 7 -5 0 -37 -4 -70
-9z"/><path d="M7302 12997 c-11 -13 -3 -37 47 -142 34 -69 61 -130 61 -134 0 -13
26 -21 120 -37 152 -26 514 -111 760 -178 71 -19 422 -135 525 -174 220 -82
302 -118 565 -249 853 -424 1579 -1061 2071 -1818 87 -132 126 -188 160 -224
32 -35 75 -92 164 -221 43 -63 81 -117 85 -120 3 -3 17 -26 30 -52 15 -28 35
-51 50 -57 44 -17 288 -31 528 -31 260 0 250 -4 211 73 -24 46 -183 279 -254
370 -24 32 -69 100 -99 150 -64 109 -222 346 -303 455 -198 266 -342 432 -588
677 -284 284 -529 490 -815 684 -489 331 -1015 580 -1610 761 -41 12 -86 26
-100 30 -58 19 -381 94 -510 119 -30 6 -77 15 -105 20 -27 5 -88 15 -135 21
-47 6 -110 15 -140 20 -52 9 -135 18 -330 40 -47 5 -130 12 -185 15 -55 3
-120 8 -145 11 -34 5 -49 2 -58 -9z"/><path d="M17270 12491 c-52 -15 -124 -39 -160 -53 -36 -14 -158 -58 -272 -97
-360 -123 -664 -264 -1008 -468 -281 -166 -329 -198 -330 -216 0 -10 15 -37
34 -60 18 -23 75 -104 126 -180 51 -75 96 -140 101 -143 5 -3 32 14 61 36 168
132 450 334 606 435 9 6 57 38 106 71 87 59 111 73 216 132 25 13 52 30 60 36
8 7 38 24 65 38 179 94 237 124 297 155 76 39 82 47 174 223 16 30 37 64 47
74 24 27 21 46 -5 45 -13 0 -66 -13 -118 -28z"/><path d="M7876 11972 c-4 -7 32 -66 79 -127 9 -11 33 -45 53 -75 33 -48 50
-61 132 -103 292 -149 672 -384 905 -561 224 -169 306 -234 363 -286 33 -30
99 -89 147 -130 117 -99 427 -409 542 -541 l92 -105 98 -39 c54 -21 145 -57
203 -80 94 -39 351 -124 423 -141 20 -4 27 -2 27 8 0 14 -161 252 -185 273 -6
6 -24 28 -40 50 -42 56 -48 64 -180 211 -38 43 -84 94 -102 114 -17 19 -78 91
-136 160 -263 316 -626 618 -1002 835 -149 86 -414 215 -550 268 -403 157
-454 174 -682 233 -193 49 -180 47 -187 36z"/><path d="M7542 9632 c-39 -12 -93 -63 -113 -106 -25 -54 -23 -101 5 -156 30
-59 76 -90 133 -90 38 0 51 6 79 34 51 51 44 116 -12 116 -23 0 -64 42 -64 66
0 21 42 44 80 44 50 0 136 -54 183 -115 31 -41 109 -189 147 -280 5 -11 25
-60 45 -110 90 -217 142 -296 272 -416 150 -138 289 -192 528 -204 132 -6 219
3 363 39 161 40 369 52 472 27 136 -33 277 -121 348 -216 23 -30 40 -55 37
-55 -2 0 -19 9 -37 19 -49 29 -183 54 -248 46 -79 -9 -175 -58 -242 -126 -32
-32 -58 -61 -58 -66 1 -23 25 -36 106 -59 147 -40 193 -35 410 47 56 21 64 22
110 9 38 -11 62 -27 109 -75 60 -62 145 -124 220 -162 63 -32 163 -65 187 -61
44 6 26 24 -59 58 -99 38 -137 63 -207 135 -96 97 -172 234 -292 529 -64 157
-108 236 -193 351 -134 181 -286 311 -454 391 -102 48 -173 64 -287 64 -108 0
-177 -14 -258 -53 -74 -36 -192 -125 -192 -146 0 -14 29 -27 123 -58 147 -50
211 -60 428 -72 137 -8 180 -14 245 -36 176 -59 310 -161 418 -318 60 -88 68
-111 25 -70 -65 60 -193 117 -325 143 -67 13 -299 8 -374 -8 -193 -43 -262
-53 -409 -59 -162 -6 -215 5 -356 73 -158 76 -269 215 -400 503 -34 75 -79
163 -100 196 -52 82 -149 176 -210 204 -51 24 -143 36 -183 23z"/><path d="M17268 9623 c-142 -54 -241 -186 -391 -524 -59 -131 -156 -258 -252
-330 -148 -109 -266 -145 -452 -136 -127 7 -137 8 -398 59 -84 16 -312 21
-379 8 -79 -15 -139 -31 -150 -42 -6 -4 -16 -8 -24 -8 -12 0 -97 -54 -172
-107 l-24 -18 19 33 c58 97 177 231 250 282 140 96 285 137 535 150 96 6 189
13 205 16 109 22 275 84 275 103 0 17 -128 118 -184 145 -102 50 -144 59 -266
58 -125 -1 -184 -15 -310 -75 -101 -48 -176 -103 -282 -205 -154 -150 -248
-299 -379 -607 -168 -395 -261 -506 -493 -590 -110 -40 -77 -71 37 -35 128 40
254 117 332 203 77 84 162 102 260 57 91 -42 143 -54 225 -52 47 2 96 7 110
11 14 5 47 15 73 23 27 7 53 18 58 24 15 18 -32 80 -95 125 -89 64 -139 81
-236 81 -82 0 -119 -9 -235 -58 -25 -10 73 105 123 144 101 80 206 120 344
132 120 11 221 0 423 -45 94 -21 322 -35 415 -25 149 15 323 95 425 195 161
158 234 273 325 520 40 108 120 262 159 307 73 82 195 124 234 80 23 -25 21
-59 -3 -67 -11 -4 -34 -18 -50 -32 -40 -33 -40 -74 -1 -114 59 -59 160 -30
208 60 29 55 29 103 0 160 -48 97 -152 134 -259 94z"/><path d="M12440 8593 c-71 -77 -393 -404 -515 -523 l-97 -95 179 -174 c98 -97
247 -235 332 -308 140 -120 183 -148 193 -125 2 4 71 65 153 136 161 137 485
452 485 471 0 6 -60 70 -132 142 -73 71 -222 221 -330 332 -109 110 -202 201
-206 201 -5 0 -33 -26 -62 -57z m304 -369 c127 -130 232 -241 234 -245 9 -22
-441 -459 -473 -459 -16 0 -168 138 -324 294 l-164 164 238 241 c132 133 244
241 249 241 5 0 114 -106 240 -236z"/><path d="M12360 8275 c-41 -41 -72 -75 -69 -75 2 0 38 34 79 75 41 41 72 75
69 75 -2 0 -38 -34 -79 -75z"/><path d="M12510 8237 c0 -1 35 -36 78 -77 l77 -75 -75 78 c-69 71 -80 82 -80
74z"/><path d="M12459 8163 c-17 -21 -61 -69 -96 -107 -34 -37 -63 -73 -63 -80 1
-13 85 -105 157 -170 l52 -47 73 78 c40 43 85 90 101 104 15 15 27 32 27 38 0
21 -186 221 -206 221 -6 0 -27 -17 -45 -37z"/><path d="M12180 8095 c-24 -25 -42 -45 -39 -45 3 0 25 20 49 45 24 25 42 45
39 45 -3 0 -25 -20 -49 -45z"/><path d="M12858 8060 c34 -36 62 -72 62 -79 0 -8 -8 -24 -17 -35 -18 -21 -18
-21 5 -2 12 11 22 26 22 35 0 9 -30 46 -67 81 l-68 65 63 -65z"/><path d="M12320 8065 c-24 -25 -42 -45 -39 -45 3 0 25 20 49 45 24 25 42 45
39 45 -3 0 -25 -20 -49 -45z"/><path d="M12165 7870 c49 -49 92 -90 95 -90 2 0 -36 41 -85 90 -49 50 -92 90
-95 90 -2 0 36 -40 85 -90z"/><path d="M12650 7683 l-65 -68 68 65 c37 35 67 66 67 67 0 8 -10 -2 -70 -64z"/><path d="M10746 8339 c-155 -37 -200 -249 -71 -338 81 -55 190 -47 251 21 70
76 71 192 2 265 -19 20 -117 65 -136 62 -4 -1 -25 -5 -46 -10z"/><path d="M14109 8320 c-64 -34 -109 -107 -109 -175 1 -35 36 -99 73 -132 58
-51 129 -65 195 -38 71 30 122 103 122 175 0 70 -59 155 -123 179 -43 17 -118
12 -158 -9z"/><path d="M11386 8193 c-66 -10 -141 -79 -161 -148 -24 -78 -6 -145 54 -204 66
-67 142 -86 214 -56 84 35 147 120 147 200 0 42 -29 117 -58 148 -39 43 -129
70 -196 60z"/><path d="M13518 8186 c-94 -34 -140 -95 -146 -190 -5 -73 17 -127 69 -170 87
-73 191 -72 280 2 138 116 65 346 -116 366 -31 4 -64 1 -87 -8z"/></g><g id="GOLD-badge" transform="translate(6.6,0) translate(0.000000,2508.000000) scale(0.100000,-0.100000)" fill="#CE9633" stroke="none"><path d="M12405 22815 l-30 -14 32 -1 c17 0 35 5 38 10 4 6 9 9 13 7 4 -2 30
-1 57 3 l50 7 -65 1 c-36 0 -78 -6 -95 -13z"/><path d="M12206 22629 c-3 -17 -5 -57 -5 -88 2 -49 3 -45 9 29 8 90 7 111 -4
59z"/><path d="M12844 22556 c1 -66 2 -73 9 -44 5 20 5 55 0 80 -8 39 -9 35 -9 -36z"/><path d="M14765 22193 c-44 -23 -65 -44 -86 -85 -45 -88 -4 -195 90 -234 175
-74 332 142 203 280 -52 55 -144 73 -207 39z"/><path d="M10139 22107 c-108 -57 -129 -196 -44 -282 103 -103 286 -43 302 99
9 80 -28 151 -98 186 -51 26 -106 25 -160 -3z"/><path d="M12488 20684 c-5 -4 -8 -30 -8 -58 0 -28 -4 -109 -10 -181 -5 -71
-14 -215 -20 -320 -6 -104 -15 -255 -20 -335 -5 -80 -14 -228 -20 -330 -6
-102 -15 -246 -20 -320 -9 -126 -17 -257 -40 -660 -10 -168 -21 -388 -40 -765
-6 -115 -15 -294 -21 -397 -8 -137 -8 -195 0 -220 l11 -35 197 3 c196 2 197 2
205 25 10 27 1 233 -42 984 -6 99 -15 259 -20 355 -22 392 -41 705 -60 975
-24 345 -46 704 -60 985 -11 233 -20 307 -32 294z"/><path d="M10910 20366 c0 -16 11 -74 25 -130 26 -106 205 -924 280 -1281 68
-322 136 -636 220 -1010 42 -187 85 -376 95 -420 87 -394 134 -583 148 -597 5
-5 40 2 88 18 88 30 212 63 261 71 58 9 68 -35 -158 643 -70 212 -133 399
-139 415 -5 17 -21 64 -35 105 -13 41 -52 154 -85 250 -34 96 -74 213 -90 260
-16 47 -54 157 -85 245 -31 88 -67 192 -80 230 -13 39 -47 135 -75 215 -28 80
-58 165 -67 190 -8 25 -32 90 -53 145 -47 125 -135 374 -185 525 -22 63 -45
124 -52 135 -12 18 -13 18 -13 -9z"/><path d="M14057 20383 c-4 -6 -27 -69 -51 -140 -24 -70 -74 -213 -111 -318
-37 -104 -84 -239 -105 -300 -37 -107 -115 -328 -159 -450 -25 -67 -98 -277
-111 -315 -5 -14 -45 -131 -90 -260 -73 -213 -440 -1309 -492 -1472 -11 -36
-18 -73 -15 -81 3 -8 37 -21 79 -31 40 -9 124 -33 186 -53 68 -22 116 -33 121
-27 7 7 75 270 121 469 5 22 16 69 24 105 8 36 25 110 37 165 11 55 25 116 29
135 4 19 24 109 44 200 20 91 41 183 46 205 11 45 101 460 131 605 43 203 59
281 95 445 20 94 49 231 64 305 16 74 54 250 85 390 32 140 64 284 71 320 15
67 16 125 1 103z"/><path d="M9360 19695 c0 -3 28 -53 63 -112 35 -60 81 -139 102 -178 45 -83 67
-122 97 -172 31 -54 158 -286 158 -289 0 -1 17 -31 38 -65 22 -35 61 -104 87
-154 26 -49 51 -94 55 -100 4 -5 82 -143 173 -305 208 -372 576 -1016 752
-1315 45 -77 117 -200 160 -272 72 -124 94 -149 110 -123 9 14 230 162 283
189 23 12 42 24 42 27 0 3 -11 19 -25 37 -31 40 -157 216 -235 327 -33 47 -94
133 -137 191 -43 58 -123 169 -179 245 -99 136 -148 204 -504 689 -97 132
-200 274 -230 315 -67 94 -155 212 -451 610 -129 173 -258 348 -288 388 -45
62 -71 86 -71 67z"/><path d="M15594 19692 c-6 -4 -47 -56 -90 -117 -213 -293 -253 -347 -319 -435
-97 -129 -539 -735 -865 -1185 -44 -60 -152 -209 -241 -330 -88 -121 -190
-263 -226 -315 -37 -52 -103 -144 -148 -205 -98 -133 -185 -261 -185 -273 0
-5 39 -33 88 -63 48 -29 122 -79 165 -111 43 -32 82 -58 87 -58 9 0 54 72 200
325 263 454 477 832 680 1200 42 77 121 219 175 315 211 376 273 487 305 545
18 33 52 94 75 135 62 109 77 136 125 225 24 44 74 133 111 197 60 105 86 158
77 158 -2 0 -8 -4 -14 -8z"/><path d="M16523 18457 c-50 -39 -144 -112 -208 -162 -65 -49 -172 -133 -238
-185 -67 -53 -151 -118 -187 -145 -116 -88 -989 -786 -1215 -972 -210 -173
-509 -421 -605 -502 l-45 -38 53 -59 c29 -32 87 -103 130 -156 42 -54 81 -98
86 -98 4 0 71 64 148 143 77 78 291 295 476 482 323 326 478 484 827 845 88
91 322 331 520 534 198 202 362 372 363 377 8 21 -18 5 -105 -64z"/><path d="M8371 18503 c8 -10 176 -182 374 -383 434 -439 687 -699 1149 -1175
473 -487 794 -805 809 -799 7 3 32 32 55 65 24 32 80 100 124 150 66 75 78 93
67 103 -49 43 -163 140 -214 182 -34 27 -166 137 -295 245 -284 236 -1144 923
-1414 1128 -61 46 -172 132 -246 190 -341 268 -450 347 -409 294z"/><path d="M7620 17151 c0 -4 30 -23 67 -42 69 -35 502 -274 606 -335 32 -19 60
-34 63 -34 2 0 37 -19 77 -43 64 -39 142 -83 332 -189 33 -18 94 -52 135 -76
41 -24 221 -126 400 -228 179 -101 363 -206 410 -233 410 -236 700 -393 716
-387 6 2 14 16 18 31 6 24 62 153 118 271 11 24 18 50 15 57 -4 11 -165 97
-181 97 -2 0 -44 18 -93 41 -48 22 -101 46 -118 54 -16 7 -56 25 -88 39 -32
14 -60 26 -62 26 -2 0 -30 12 -62 26 -56 25 -96 43 -158 69 -16 7 -52 23 -80
35 -27 12 -63 28 -80 35 -16 7 -51 22 -77 34 -26 11 -52 21 -58 21 -6 0 -18 4
-28 10 -31 18 -152 70 -162 70 -6 0 -19 5 -30 10 -11 6 -29 15 -40 20 -11 6
-24 10 -30 10 -5 0 -33 11 -62 24 -30 14 -78 34 -108 46 -30 12 -68 27 -85 35
-25 10 -128 51 -370 145 -11 4 -31 12 -45 18 -14 5 -86 33 -160 62 -74 29
-144 56 -155 60 -47 20 -284 109 -325 123 -25 9 -97 36 -160 61 -117 47 -140
53 -140 37z"/><path d="M17220 17111 c-63 -26 -151 -60 -195 -75 -44 -15 -93 -33 -110 -41
-16 -7 -66 -26 -110 -43 -82 -31 -384 -148 -420 -162 -11 -4 -40 -16 -65 -25
-46 -17 -71 -27 -152 -64 -26 -11 -54 -21 -61 -21 -7 0 -17 -4 -22 -8 -6 -4
-28 -14 -50 -21 -22 -8 -62 -24 -90 -37 -27 -12 -108 -46 -180 -74 -71 -29
-148 -60 -171 -70 -22 -11 -65 -29 -95 -40 -30 -12 -70 -28 -89 -37 -19 -8
-44 -19 -55 -24 -11 -5 -69 -29 -130 -55 -60 -25 -134 -57 -163 -70 -29 -13
-55 -24 -57 -24 -2 0 -28 -11 -57 -24 -54 -24 -118 -53 -198 -88 -99 -44 -119
-53 -227 -104 -62 -29 -113 -58 -113 -64 0 -6 17 -45 39 -88 38 -76 93 -206
106 -249 8 -28 28 -29 63 -5 15 11 72 43 127 72 55 29 195 107 310 173 116 66
246 141 290 165 44 25 141 80 215 122 74 43 162 92 195 110 33 18 175 98 315
178 140 79 309 175 375 212 303 170 524 295 568 321 27 16 50 29 52 29 2 0 41
21 87 48 46 26 104 59 131 72 26 14 57 33 70 42 21 17 21 18 2 17 -11 -1 -72
-22 -135 -48z"/><path d="M12255 16784 c-136 -18 -246 -42 -340 -72 -474 -155 -820 -427 -1066
-841 -130 -218 -196 -402 -244 -681 -16 -92 -20 -236 -7 -244 4 -2 90 -23 191
-46 177 -40 453 -117 651 -182 277 -90 722 -273 977 -402 74 -37 102 -43 118
-27 49 47 459 241 745 354 335 131 787 261 1083 312 21 3 41 13 44 22 8 21
-12 191 -38 318 -180 875 -964 1509 -1859 1503 -85 0 -200 -7 -255 -14z"/><path d="M7298 15758 c7 -7 83 -29 170 -48 153 -36 741 -185 1232 -314 225
-59 940 -254 1140 -311 47 -14 135 -31 195 -40 61 -8 145 -22 188 -31 94 -19
107 -12 107 52 0 24 7 88 16 142 8 55 14 115 12 133 -3 30 -7 34 -53 45 -85
22 -760 128 -1040 164 -44 6 -93 13 -110 16 -27 4 -221 30 -415 55 -83 11
-188 23 -325 39 -49 5 -128 14 -175 20 -115 14 -263 29 -390 40 -58 5 -202 18
-320 29 -258 25 -248 25 -232 9z"/><path d="M17465 15749 c-44 -4 -136 -13 -205 -19 -121 -10 -225 -21 -400 -40
-47 -5 -132 -14 -190 -20 -235 -25 -485 -55 -750 -90 -85 -11 -191 -25 -235
-31 -44 -5 -107 -14 -140 -19 -33 -5 -94 -14 -135 -20 -96 -13 -598 -96 -668
-109 -30 -6 -66 -17 -80 -24 -24 -11 -27 -18 -26 -62 0 -70 30 -275 41 -286 6
-6 47 -4 104 5 52 9 154 22 228 31 73 9 137 18 141 20 10 6 444 126 685 190
919 243 1460 382 1697 435 165 37 187 50 88 48 -41 0 -111 -4 -155 -9z"/><path d="M12256 8219 l-239 -241 239 -239 c131 -131 244 -238 251 -237 26 6
477 462 471 477 -6 16 -464 481 -474 481 -5 0 -117 -108 -248 -241z m335 119
c41 -46 134 -142 208 -214 82 -80 132 -136 130 -146 -2 -9 -83 -98 -180 -199
-97 -101 -189 -199 -204 -217 -15 -18 -33 -32 -39 -30 -7 2 -50 45 -97 95 -47
51 -140 145 -207 209 -79 75 -122 123 -122 136 0 14 65 87 185 207 101 102
194 198 205 214 12 15 27 27 34 27 7 0 46 -37 87 -82z"/><path d="M12381 8119 c-67 -68 -121 -131 -121 -140 0 -20 226 -259 245 -259
17 0 113 99 212 217 l35 43 -40 47 c-22 27 -79 86 -126 132 l-85 84 -120 -124z
m200 13 c96 -101 129 -140 129 -153 0 -6 -12 -23 -27 -38 -16 -14 -61 -61
-101 -104 l-73 -78 -52 47 c-72 65 -156 157 -157 170 0 7 29 43 63 80 35 38
79 86 96 107 18 20 39 37 45 37 7 0 42 -30 77 -68z"/></g></svg>